<?xml version="1.0" encoding="UTF-8"?>
<svg version="1.1" xmlns="http://www.w3.org/2000/svg" width="327" height="336">
<path d="M0 0 C107.91 0 215.82 0 327 0 C327 110.88 327 221.76 327 336 C219.09 336 111.18 336 0 336 C0 225.12 0 114.24 0 0 Z M156.7265625 22.48828125 C152.44924997 28.71070649 151.38888749 34.64747388 150.5 42 C149.75028449 48.20135055 148.75693395 53.36360171 146 59 C145.505 58.360625 145.01 57.72125 144.5 57.0625 C142.36516043 54.44732152 140.20766186 51.86613872 138 49.3125 C137.01 48.16201172 137.01 48.16201172 136 46.98828125 C132.94299693 43.9491903 130.84172142 43.09182416 126.5625 42.625 C122.41844436 43.06121638 120.90869728 44.09130272 118 47 C116.03678822 50.92642357 116.28385835 54.73474461 117 59 C120.83457065 69.76584759 127.61525177 79.60522566 134 89 C134.61633301 89.91120605 134.61633301 89.91120605 135.24511719 90.84082031 C142.4443051 101.46085993 149.84276026 111.94534672 157.21044922 122.44873047 C165.84384836 134.75691887 174.45290813 147.08167988 183.03417969 159.42626953 C188.51962876 167.31508234 194.02407089 175.19041271 199.5390625 183.05859375 C201.95514882 186.50590274 204.36585656 189.95690201 206.7734375 193.41015625 C207.39718262 194.30387939 208.02092773 195.19760254 208.66357422 196.1184082 C209.8459827 197.81279547 211.02737864 199.50789 212.20751953 201.20385742 C215.70601705 206.21356807 219.30024492 211.13698859 223 216 C223.33 215.34 223.66 214.68 224 214 C222.84504546 211.30914626 221.62029883 208.73794729 220.29321289 206.13232422 C219.88680573 205.31892578 219.48039856 204.50552734 219.06167603 203.66748047 C217.70621434 200.95935891 216.33946747 198.25709627 214.97265625 195.5546875 C214.02562243 193.66808549 213.07929768 191.7811274 212.13365173 189.89382935 C209.63006733 184.90197969 207.11693509 179.91499607 204.60180664 174.92895508 C202.0746321 169.91508889 199.55616508 164.89685497 197.03710938 159.87890625 C193.32001921 152.47656301 189.59806509 145.07669496 185.87133789 137.67919922 C180.29814167 126.6149043 174.75053238 115.53811506 169.25 104.4375 C165.31612544 96.53308599 161.22303627 88.71207786 157.12402344 80.89233398 C154.70725446 76.2813514 152.30303287 71.66894719 150 67 C150.61609131 66.75048584 151.23218262 66.50097168 151.86694336 66.24389648 C155.70289975 64.00695041 156.66511056 60.07354651 158 56 C159.06064413 51.18840111 159.68838928 46.3211697 160.33398438 41.43945312 C161.28928241 35.09745253 162.72358322 29.93000738 167 25 C172.16816206 21.81959258 177.08281316 21.14257324 183 22 C189.91802408 23.9494432 196.49201492 26.9790094 203 30 C205.12821884 27.18288354 205.12821884 27.18288354 207 24 C206.27101876 20.69683754 206.27101876 20.69683754 202.90234375 19.24609375 C201.58573019 18.63238409 200.26381715 18.02994714 198.9375 17.4375 C197.97166992 16.98213867 197.97166992 16.98213867 196.98632812 16.51757812 C181.89485051 9.61130871 168.04871834 9.51206561 156.7265625 22.48828125 Z M115.1875 75.3125 C108.95661875 81.83078352 104.23729317 89.32786058 103.828125 98.51953125 C104.49965772 108.21096936 108.9039939 115.53475 116 122 C120.62588425 125.96237358 125.29833238 129.27277387 130.6875 132.125 C140.82318143 137.50514462 140.82318143 137.50514462 143.5625 143.3125 C144.28667162 149.41623223 141.90156341 154.11581196 138.21484375 158.82421875 C137.13215477 160.1201948 136.03929011 161.4077235 134.9375 162.6875 C133.76840588 164.0889057 132.600451 165.49126251 131.43359375 166.89453125 C130.85464355 167.58498535 130.27569336 168.27543945 129.67919922 168.98681641 C119.5433617 181.13862161 110.47990783 192.81778868 110.73046875 209.33203125 C111.10783943 213.06745407 112.24132378 215.70248208 114 219 C116.35171131 218.40138258 118.6859378 217.73075648 121 217 C121.33 216.34 121.66 215.68 122 215 C121.67 214.01 121.34 213.02 121 212 C119.70580593 199.24900592 124.43718422 191.01100527 132.20703125 181.3671875 C134.53895372 178.52997395 136.92786169 175.74451434 139.32641602 172.96362305 C139.79619873 172.41875244 140.26598145 171.87388184 140.75 171.3125 C141.21269287 170.7760083 141.67538574 170.2395166 142.15209961 169.68676758 C149.88939753 160.57283535 153.90131572 153.02909829 153 141 C150.13441832 131.86595838 141.99145542 126.76241727 134 122.4375 C125.11831962 117.61890036 117.94986599 113.53200066 114.56640625 103.47265625 C113.14547103 97.26953903 114.64079323 93.26569425 117.75 87.8125 C120.15892573 84.03618888 122.64728323 80.9582795 126 78 C124.21168225 74.94236782 124.21168225 74.94236782 122 72 C118.27086128 72 117.7855073 72.75548689 115.1875 75.3125 Z M35 258 C34.7733667 258.56920166 34.5467334 259.13840332 34.31323242 259.72485352 C33.2722561 262.33777574 32.22988798 264.95014063 31.1875 267.5625 C30.83107422 268.45775391 30.47464844 269.35300781 30.10742188 270.27539062 C29.403888 272.03745254 28.69651457 273.79798682 27.98510742 275.55688477 C27.37244511 277.07631766 26.76925915 278.59965112 26.1809082 280.12866211 C24.22426728 285.05399962 22.48965581 286.50574677 18 289 C18.52956299 289.70809814 19.05912598 290.41619629 19.60473633 291.14575195 C21 294 21 294 20.5144043 296.73901367 C20.12164307 297.70556885 19.72888184 298.67212402 19.32421875 299.66796875 C18.90849609 300.72564453 18.49277344 301.78332031 18.06445312 302.87304688 C17.61005859 303.96681641 17.15566406 305.06058594 16.6875 306.1875 C15.8141879 308.36760226 14.9429827 310.54855008 14.07421875 312.73046875 C13.48000122 314.17522583 13.48000122 314.17522583 12.8737793 315.64916992 C11.88386613 317.89445416 11.88386613 317.89445416 12 320 C14.97 320 17.94 320 21 320 C21.81917642 318.27398621 22.63006016 316.5440353 23.4375 314.8125 C23.88996094 313.84957031 24.34242187 312.88664062 24.80859375 311.89453125 C26.22115669 308.72568951 26.22115669 308.72568951 27 304 C35.25 304.33 43.5 304.66 52 305 C53.98 309.95 55.96 314.9 58 320 C60.97 320 63.94 320 67 320 C64.83727877 312.50207757 62.32040679 305.20939593 59.5859375 297.90234375 C58.96327499 296.22912804 58.96327499 296.22912804 58.32803345 294.52210999 C57.45721924 292.18449036 56.58483129 289.84745643 55.7109375 287.51098633 C54.36789346 283.91849078 53.03128311 280.3236468 51.6953125 276.72851562 C50.84673431 274.4529832 49.99778926 272.17758755 49.1484375 269.90234375 C48.74740814 268.82331284 48.34637878 267.74428192 47.93319702 266.6325531 C47.56256134 265.6438472 47.19192566 264.6551413 46.81005859 263.63647461 C46.48379486 262.76284775 46.15753113 261.88922089 45.82138062 260.98912048 C45.16365824 259.03576136 45.16365824 259.03576136 44 258 C42.48071962 257.92820036 40.95832518 257.91607993 39.4375 257.9375 C38.61121094 257.94652344 37.78492187 257.95554687 36.93359375 257.96484375 C35.97646484 257.98224609 35.97646484 257.98224609 35 258 Z M85 258 C84.9906543 258.79172607 84.98130859 259.58345215 84.97167969 260.39916992 C84.91790656 263.99590708 84.83427037 267.59135352 84.75 271.1875 C84.73582031 272.43337891 84.72164063 273.67925781 84.70703125 274.96289062 C84.67480469 276.16494141 84.64257812 277.36699219 84.609375 278.60546875 C84.58842773 279.71043701 84.56748047 280.81540527 84.54589844 281.95385742 C83.89183999 285.60353865 82.50161664 287.32187557 80 290 C80.97114746 290.80195801 80.97114746 290.80195801 81.96191406 291.62011719 C84.52576568 294.61393913 84.5329306 296.17946048 84.609375 300.078125 C84.64160156 301.23828125 84.67382812 302.3984375 84.70703125 303.59375 C84.72121094 304.8003125 84.73539062 306.006875 84.75 307.25 C84.77964844 308.47203125 84.80929688 309.6940625 84.83984375 310.953125 C84.91052402 313.96881644 84.96323175 316.9837355 85 320 C87.97 320 90.94 320 94 320 C94.33 306.14 94.66 292.28 95 278 C96.959375 281.58875 98.91875 285.1775 100.9375 288.875 C101.55488037 290.00534668 102.17226074 291.13569336 102.80834961 292.30029297 C103.29311768 293.18861816 103.77788574 294.07694336 104.27734375 294.9921875 C104.77484131 295.90339355 105.27233887 296.81459961 105.78491211 297.75341797 C106.54443557 299.15770467 107.28601162 300.57202324 108 302 C111.3 302 114.6 302 118 302 C119.20980081 299.89666611 120.41783957 297.79234881 121.625 295.6875 C121.95628906 295.11193359 122.28757813 294.53636719 122.62890625 293.94335938 C125.84032919 288.33851746 128.9042003 282.67563279 132 277 C132.33 291.19 132.66 305.38 133 320 C135.97 320 138.94 320 142 320 C142.0093457 319.20303711 142.01869141 318.40607422 142.02832031 317.58496094 C142.08201498 313.97267825 142.16566608 310.36169179 142.25 306.75 C142.26417969 305.49574219 142.27835938 304.24148438 142.29296875 302.94921875 C142.32519531 301.74394531 142.35742188 300.53867187 142.390625 299.296875 C142.41157227 298.18666992 142.43251953 297.07646484 142.45410156 295.93261719 C143.10736907 292.42320334 144.28083733 291.22649208 147 289 C146.35256836 288.46987305 145.70513672 287.93974609 145.03808594 287.39355469 C142.43819021 284.34020327 142.46553225 282.67320915 142.390625 278.703125 C142.35839844 277.49785156 142.32617188 276.29257812 142.29296875 275.05078125 C142.27878906 273.79652344 142.26460937 272.54226563 142.25 271.25 C142.22035156 269.98027344 142.19070312 268.71054687 142.16015625 267.40234375 C142.08946049 264.26816515 142.03675988 261.13473044 142 258 C138.7 258 135.4 258 132 258 C129.95690167 261.60335683 127.91579358 265.20783743 125.875 268.8125 C125.30523437 269.81732422 124.73546875 270.82214844 124.1484375 271.85742188 C120.36810502 278.5374412 116.65440318 285.25026899 113 292 C112.63237549 291.28980713 112.26475098 290.57961426 111.88598633 289.84790039 C110.19619215 286.58538968 108.50436041 283.32393965 106.8125 280.0625 C106.23435547 278.94552734 105.65621094 277.82855469 105.06054688 276.67773438 C101.79996233 270.39604325 98.47265836 264.16707501 95 258 C91.7 258 88.4 258 85 258 Z M182 258 C181.73372803 258.79696289 181.46745605 259.59392578 181.19311523 260.41503906 C180.1860181 263.38930226 179.15670173 266.35465301 178.11206055 269.31591797 C177.66592864 270.59505549 177.22858799 271.87729655 176.80053711 273.16259766 C172.77232143 285.22385204 172.77232143 285.22385204 168.16015625 287.859375 C167.11730469 288.23578125 166.07445312 288.6121875 165 289 C165.7734375 289.8353125 165.7734375 289.8353125 166.5625 290.6875 C168 293 168 293 167.70532227 295.31323242 C166.9881463 298.04515401 166.12872832 300.65059457 165.15234375 303.30078125 C164.79462891 304.27724609 164.43691406 305.25371094 164.06835938 306.25976562 C163.50858398 307.77086914 163.50858398 307.77086914 162.9375 309.3125 C162.56044922 310.33923828 162.18339844 311.36597656 161.79492188 312.42382812 C160.86654598 314.95042074 159.93370789 317.47537297 159 320 C162.3 320 165.6 320 169 320 C169.8394882 317.89828133 170.67139656 315.79353375 171.5 313.6875 C171.9640625 312.51574219 172.428125 311.34398437 172.90625 310.13671875 C174.16462513 307.08153552 174.16462513 307.08153552 174 304 C182.58 304 191.16 304 200 304 C200.495 306.97 200.495 306.97 201 310 C201.63509263 311.81090669 202.32101115 313.60499436 203.0625 315.375 C203.60583984 316.68597656 203.60583984 316.68597656 204.16015625 318.0234375 C204.43730469 318.67570312 204.71445313 319.32796875 205 320 C209.65052872 320.26932521 209.65052872 320.26932521 214 319 C213.24215931 313.94083142 211.37152268 309.32470013 209.578125 304.5625 C209.2362616 303.64597656 208.89439819 302.72945313 208.54217529 301.78515625 C207.44831905 298.85543518 206.34916528 295.92773278 205.25 293 C204.52570871 291.06132228 203.80174705 289.12252137 203.078125 287.18359375 C199.43618565 277.43601351 195.76581135 267.70051039 192 258 C188.7 258 185.4 258 182 258 Z M234 258 C233.98541748 258.83772949 233.97083496 259.67545898 233.95581055 260.53857422 C233.89479293 263.64378902 233.82064935 266.74833117 233.73754883 269.85302734 C233.68790041 271.85882336 233.65345836 273.86497687 233.61914062 275.87109375 C233.5659668 277.75634766 233.5659668 277.75634766 233.51171875 279.6796875 C233.48553467 280.84226074 233.45935059 282.00483398 233.43237305 283.20263672 C233.28968994 284.1257666 233.14700684 285.04889648 233 286 C232.01 286.66 231.02 287.32 230 288 C231.22007944 290.6905528 231.22007944 290.6905528 233 293 C233.15825258 294.99782126 233.25119171 297.00088834 233.31640625 299.00390625 C233.35830078 300.21884766 233.40019531 301.43378906 233.44335938 302.68554688 C233.48267578 303.96494141 233.52199219 305.24433594 233.5625 306.5625 C233.60568359 307.84576172 233.64886719 309.12902344 233.69335938 310.45117188 C233.799848 313.63399853 233.90185962 316.81690674 234 320 C237.3 320 240.6 320 244 320 C244.33 306.14 244.66 292.28 245 278 C247.10375 281.774375 249.2075 285.54875 251.375 289.4375 C252.66652274 291.72737867 253.95922028 294.01659581 255.25390625 296.3046875 C257.51805546 300.3195734 259.72323666 304.35089223 261.83984375 308.4453125 C262.26281738 309.23494385 262.68579102 310.0245752 263.12158203 310.83813477 C263.896284 312.28510271 264.6450412 313.74636612 265.36279297 315.22241211 C266.48563307 317.44731864 266.48563307 317.44731864 269 320 C272.0836485 320.56633085 274.90433905 320.41853638 278 320 C278.0093457 319.20303711 278.01869141 318.40607422 278.02832031 317.58496094 C278.08201498 313.97267825 278.16566608 310.36169179 278.25 306.75 C278.26417969 305.49574219 278.27835937 304.24148438 278.29296875 302.94921875 C278.32519531 301.74394531 278.35742188 300.53867187 278.390625 299.296875 C278.41157227 298.18666992 278.43251953 297.07646484 278.45410156 295.93261719 C279.10736907 292.42320334 280.28083733 291.22649208 283 289 C282.35256836 288.46987305 281.70513672 287.93974609 281.03808594 287.39355469 C278.43819021 284.34020327 278.46553225 282.67320915 278.390625 278.703125 C278.35839844 277.49785156 278.32617188 276.29257812 278.29296875 275.05078125 C278.27878906 273.79652344 278.26460938 272.54226563 278.25 271.25 C278.22035156 269.98027344 278.19070313 268.71054687 278.16015625 267.40234375 C278.08946049 264.26816515 278.03675988 261.13473044 278 258 C275.03 258 272.06 258 269 258 C268.67 271.86 268.34 285.72 268 300 C264.844375 294.3384375 264.844375 294.3384375 261.625 288.5625 C260.3321393 286.27264076 259.03813299 283.98342731 257.7421875 281.6953125 C255.47977214 277.68451167 253.28606237 273.65737848 251.1953125 269.5546875 C250.77685059 268.76505615 250.35838867 267.9754248 249.92724609 267.16186523 C249.16223606 265.71640558 248.42619575 264.25510453 247.72509766 262.77758789 C246.61341352 260.53658459 246.61341352 260.53658459 244 258 C240.59107508 257.43030554 237.4205842 257.58709961 234 258 Z M306 258 C305.9906543 258.79172607 305.98130859 259.58345215 305.97167969 260.39916992 C305.91790656 263.99590708 305.83427037 267.59135352 305.75 271.1875 C305.73582031 272.43337891 305.72164063 273.67925781 305.70703125 274.96289062 C305.67480469 276.16494141 305.64257812 277.36699219 305.609375 278.60546875 C305.58842773 279.71043701 305.56748047 280.81540527 305.54589844 281.95385742 C304.89183999 285.60353865 303.50161664 287.32187557 301 290 C301.64743164 290.36714111 302.29486328 290.73428223 302.96191406 291.11254883 C305 293 305 293 305.54589844 295.8190918 C305.5668457 296.93453369 305.58779297 298.04997559 305.609375 299.19921875 C305.64160156 300.40771484 305.67382812 301.61621094 305.70703125 302.86132812 C305.72121094 304.12396484 305.73539062 305.38660156 305.75 306.6875 C305.77964844 307.96173828 305.80929687 309.23597656 305.83984375 310.54882812 C305.91064049 313.69928292 305.96329047 316.8489934 306 320 C308.97 320 311.94 320 315 320 C315.0093457 319.20303711 315.01869141 318.40607422 315.02832031 317.58496094 C315.08201498 313.97267825 315.16566608 310.36169179 315.25 306.75 C315.26417969 305.49574219 315.27835937 304.24148438 315.29296875 302.94921875 C315.32519531 301.74394531 315.35742188 300.53867187 315.390625 299.296875 C315.41157227 298.18666992 315.43251953 297.07646484 315.45410156 295.93261719 C316.10736907 292.42320334 317.28083733 291.22649208 320 289 C319.35256836 288.46987305 318.70513672 287.93974609 318.03808594 287.39355469 C315.43819021 284.34020327 315.46553225 282.67320915 315.390625 278.703125 C315.35839844 277.49785156 315.32617188 276.29257812 315.29296875 275.05078125 C315.27878906 273.79652344 315.26460938 272.54226563 315.25 271.25 C315.22035156 269.98027344 315.19070313 268.71054687 315.16015625 267.40234375 C315.08946049 264.26816515 315.03675988 261.13473044 315 258 C312.03 258 309.06 258 306 258 Z " fill="#000000" transform="translate(0,0)"/>
<path d="M0 0 C0.33 0.66 0.66 1.32 1 2 C-1.64 2.33 -4.28 2.66 -7 3 C-6.62257767 9.16456476 -4.84129692 12.17375515 -1 17 C-4.83641483 15.49283703 -6.85990819 13.51586512 -9 10 C-9.57960005 7.03244773 -9.39932446 5.09476454 -9 2 C-6.23262812 -1.38234341 -4.01093403 -1.40924709 0 0 Z " fill="#000000" transform="translate(138,61)"/>
<path d="M0 0 C2.6983845 1.34919225 2.74773003 2.55116176 3.7265625 5.3671875 C4.0359375 6.25277344 4.3453125 7.13835937 4.6640625 8.05078125 C4.98117188 8.98277344 5.29828125 9.91476562 5.625 10.875 C5.94984375 11.79925781 6.2746875 12.72351563 6.609375 13.67578125 C9 20.59654018 9 20.59654018 9 24 C3.39 24 -2.22 24 -8 24 C-5.65868652 15.86701635 -2.89754422 7.94820431 0 0 Z " fill="#000000" transform="translate(39,271)"/>
<path d="M0 0 C0.66 0 1.32 0 2 0 C3.33871641 3.45627381 4.67005392 6.91534297 6 10.375 C6.3815625 11.35984375 6.763125 12.3446875 7.15625 13.359375 C7.5171875 14.30039062 7.878125 15.24140625 8.25 16.2109375 C8.58515625 17.08024902 8.9203125 17.94956055 9.265625 18.84521484 C10 21 10 21 10 23 C4.06 23 -1.88 23 -8 23 C-5.36 15.41 -2.72 7.82 0 0 Z " fill="#000000" transform="translate(186,272)"/>
</svg>
